<?xml version="1.0" encoding="UTF-8" standalone="no"?>
<!-- Created with Inkscape (http://www.inkscape.org/) -->

<svg
   xmlns:dc="http://purl.org/dc/elements/1.1/"
   xmlns:cc="http://creativecommons.org/ns#"
   xmlns:rdf="http://www.w3.org/1999/02/22-rdf-syntax-ns#"
   xmlns:svg="http://www.w3.org/2000/svg"
   xmlns="http://www.w3.org/2000/svg"
   xmlns:sodipodi="http://sodipodi.sourceforge.net/DTD/sodipodi-0.dtd"
   xmlns:inkscape="http://www.inkscape.org/namespaces/inkscape"
   width="500"
   height="500"
   id="svg2"
   version="1.1"
   inkscape:version="0.48.4 r"
   sodipodi:docname="Neues Dokument 1">
  <defs
     id="defs4">
    <filter
       id="filter5203"
       inkscape:collect="always"
       color-interpolation-filters="sRGB">
      <feBlend
         id="feBlend5205"
         in2="BackgroundImage"
         mode="multiply"
         inkscape:collect="always" />
    </filter>
  </defs>
  <sodipodi:namedview
     id="base"
     pagecolor="#ffffff"
     bordercolor="#666666"
     borderopacity="1.0"
     inkscape:pageopacity="0.0"
     inkscape:pageshadow="2"
     inkscape:zoom="0.49497475"
     inkscape:cx="399.75472"
     inkscape:cy="346.994"
     inkscape:document-units="px"
     inkscape:current-layer="layer4"
     showgrid="false"
     inkscape:window-width="1366"
     inkscape:window-height="705"
     inkscape:window-x="-8"
     inkscape:window-y="-8"
     inkscape:window-maximized="1"
     showborder="true" />
  <metadata
     id="metadata7">
    <rdf:RDF>
      <cc:Work
         rdf:about="">
        <dc:format>image/svg+xml</dc:format>
        <dc:type
           rdf:resource="http://purl.org/dc/dcmitype/StillImage" />
        <dc:title></dc:title>
      </cc:Work>
    </rdf:RDF>
  </metadata>
  <g
     inkscape:groupmode="layer"
     id="layer4"
     inkscape:label="Ebene"
     transform="translate(0,-552.36218)">
    <path
       transform="translate(-71.75663,287.14285)"
       style="fill:none;stroke:#000000;stroke-width:6;stroke-miterlimit:4;stroke-opacity:1;stroke-dasharray:none;display:inline;enable-background:new"
       d="m 91.384167,590.37642 c 10.101533,2.02031 29.294423,3.03046 33.335033,36.36549 4.04061,33.33504 -1.83647,65.41482 19.37673,82.58741 21.21321,17.1726 44.01034,20.7007 82.39614,20.7007 38.3858,0 56.44408,0.64865 76.51906,-6.06092 10.89733,-3.64217 26.42523,-13.1159 28.78935,-37.62819 3.7414,-38.79259 18.68782,-64.64976 -16.66752,-87.88326 -35.35534,-23.23351 -63.13454,-2.02031 -65.15484,-40.40611 -2.02031,-38.3858 -2.02031,-36.36549 -5.05076,-69.70052 -3.03046,-33.33504 -18.18275,-37.37565 -8.08122,-56.56855 10.10152,-19.1929 98.99495,-86.87312 114.14723,-87.88327 15.15229,-1.01015 71.72083,-24.24366 80.81221,-25.25381 9.09137,-1.01015 88.89342,-6.06092 104.04571,10.10152 15.15229,16.16244 14.14214,139.40105 11.11168,151.52289 -3.03046,12.12183 -45.45687,25.25381 -70.71068,27.27411 -25.25381,2.02031 -72.73098,5.05077 -79.80205,18.18275 -7.07107,13.13198 -4.04061,36.36549 9.09137,56.56854 13.13198,20.20305 27.27412,31.31473 29.29443,48.48732 2.0203,17.1726 -8.08123,50.50763 3.03045,71.72084 11.11168,21.2132 32.32488,35.35533 68.69038,36.36549"
       inkscape:connector-curvature="0"
       sodipodi:nodetypes="cssssssssssssssssssc" />
  </g>
</svg>
